<?xml version="1.0" standalone="no"?>
<svg viewBox="0 0 200 200" xmlns="http://www.w3.org/2000/svg">
  <path fill="#4056FF" d="M24.6,-45.8C33,-37.8,41.5,-33.4,51.1,-26.3C60.6,-19.3,71.1,-9.6,71.1,0C71.1,9.7,60.8,19.4,52.2,28.1C43.6,36.7,36.8,44.4,28.4,55.7C20,67,10,82,-1.4,84.5C-12.8,86.9,-25.7,76.8,-39.6,68.7C-53.6,60.6,-68.6,54.4,-73.3,43.3C-78,32.2,-72.4,16.1,-70.7,1C-69,-14.1,-71.2,-28.3,-65.4,-37.5C-59.7,-46.8,-45.9,-51.2,-33.7,-57C-21.4,-62.7,-10.7,-69.8,-1.3,-67.5C8.1,-65.3,16.2,-53.7,24.6,-45.8Z" transform="translate(100 100)" />
</svg>
