<?xml version="1.0" standalone="no"?>
<svg viewBox="0 0 200 200" xmlns="http://www.w3.org/2000/svg">
  <path fill="#4056FF" d="M39.3,-71C49.8,-62.1,56.2,-49.1,63.5,-36.6C70.7,-24.1,78.7,-12.1,81.1,1.4C83.5,14.8,80.2,29.6,74,44C67.9,58.4,58.8,72.3,46,81.4C33.2,90.4,16.6,94.6,2.9,89.6C-10.9,84.7,-21.8,70.6,-34,61.2C-46.2,51.8,-59.7,47,-65.2,37.6C-70.6,28.2,-68,14.1,-67.4,0.4C-66.7,-13.3,-68,-26.7,-63.4,-37.6C-58.8,-48.5,-48.3,-57,-36.8,-65.3C-25.2,-73.7,-12.6,-81.8,0.9,-83.4C14.4,-85,28.9,-80,39.3,-71Z" transform="translate(100 100)" />
</svg>
